<?xml version="1.0" standalone="no"?><!DOCTYPE svg PUBLIC "-//W3C//DTD SVG 20010904//EN" "http://www.w3.org/TR/2001/REC-SVG-20010904/DTD/svg10.dtd"><svg version="1.0" xmlns="http://www.w3.org/2000/svg" width="600.000000pt" height="600.000000pt" viewBox="0 0 600.000000 600.000000" preserveAspectRatio="xMidYMid meet"><metadata>Created by potrace 1.11, written by Peter Selinger 2001-2013</metadata><g transform="translate(0.000000,600.000000) scale(0.100000,-0.100000)" fill="#000000" stroke="none"><path d="M2909 5857 c-92 -26 -176 -94 -219 -177 -11 -21 -162 -462 -175 -510 -13 -50 -404 -1213 -410 -1218 -3 -4 -412 -7 -908 -7 -1003 -1 -951 2 -1051 -69 -154 -109 -190 -332 -80 -484 38 -52 14 -35 714 -527 80 -56 286 -202 459 -324 172 -121 317 -221 322 -221 5 0 3 -17 -5 -37 -8 -21 -40 -123 -71 -228 -32 -104 -66 -215 -75 -245 -27 -80 -190 -607 -205 -660 -7 -25 -37 -119 -65 -210 -29 -91 -56 -178 -60 -195 -5 -16 -18 -59 -30 -95 -30 -90 -31 -98 -35 -160 -11 -199 169 -374 370 -358 89 8 136 33 342 181 102 72 201 144 221 158 21 14 127 90 237 169 110 79 235 168 278 199 43 31 109 79 147 106 38 28 77 56 87 63 10 6 81 57 158 112 76 55 145 98 152 96 7 -3 212 -148 456 -322 243 -175 469 -337 502 -360 33 -24 65 -47 70 -51 58 -47 431 -306 465 -324 37 -19 61 -23 135 -23 77 -1 98 3 147 26 73 34 139 100 174 174 22 48 27 73 27 134 0 67 -10 110 -101 400 -55 179 -139 451 -187 605 -48 154 -109 352 -137 440 -98 313 -119 386 -116 395 2 4 129 97 283 205 154 109 327 231 385 272 168 119 366 258 572 403 217 153 243 177 283 257 23 47 29 73 31 136 3 127 -47 228 -146 296 -99 67 -40 63 -1050 65 l-915 2 -76 229 c-67 201 -261 792 -434 1321 -74 229 -114 287 -234 342 -65 30 -164 38 -232 19z"/></g></svg>